<svg width="1273" height="770" viewBox="0 0 1273 770" fill="none" xmlns="http://www.w3.org/2000/svg">
<path fill-rule="evenodd" clip-rule="evenodd" d="M1335.26 427.424C1335.26 427.424 1358.72 437.592 1389.68 482.046L1416.02 466.477C1380.1 426.952 1354.44 403.582 1317.75 380.363C1303.91 372.881 1290.26 375.88 1278.46 380.534C1266.66 385.188 1223.65 399.69 1198.76 410.823C1178.19 420.02 1154.49 425.862 1124.11 433.749C1066.41 448.729 1026.83 432.242 1004.44 422.917C1000.77 421.388 997.562 420.052 994.812 419.079C992.214 418.159 989.478 417.254 986.515 416.274C967.199 409.883 938.198 400.289 874.547 362.511C872.481 360.929 870.448 359.375 868.448 357.845C818.08 319.328 788.024 296.344 754.901 249.29L1011.81 231.482C1070.85 225.707 1103.06 219.497 1156.57 194.998C1217.4 163.261 1228.09 136.107 1220.49 84.3209C1201.69 40.3508 1166.02 -8.9151 1045.59 1.37962C925.153 11.6743 855.992 45.3209 771.992 111.821C725.312 159.321 697.289 169.239 709.744 232.797C688.228 242.306 680.43 248.945 672.517 262.63C667.682 269.8 664.608 274.772 659.209 283.504C640.992 312.966 633.28 331.466 587.255 354.489L531.758 377.38L509.258 357.38C467.21 328.39 440.855 311.195 429.758 307.38C416.758 301.299 384.699 286.636 336.258 287.38C302.192 292.488 280.203 297.49 253.492 323.798C243.376 340.556 238.859 355.383 232.773 375.358C230.031 384.359 226.97 394.406 222.935 406.146C215.938 429.554 206.143 440.367 177.419 455.179C145.324 466.895 128.91 471.911 101.473 467.872C66.6965 463.733 60.8275 458.098 46.4684 444.31C43.5329 441.492 40.2425 438.332 36.2778 434.775C11.1851 386.902 -2.7633 362.016 -26.6402 333.053C-66.1887 291.652 -92.1788 281.282 -142.816 277.306L-142.692 305.741C-61.3933 322.443 -35.0728 360.368 4.7349 438.622C31.3268 492.73 66.2189 499.145 138.961 497.999C184.098 490.693 207.028 480.133 239.173 437.601C251.742 411.368 260.602 392.592 269.758 354.489C293.063 311.023 337.892 309.748 350.505 309.75C363.117 309.752 389.695 315.591 409.355 323.119C429.014 330.648 511.54 387.347 504.958 387.61C440.446 405.728 403.175 424.232 335.896 463.143C286.499 503.214 260.658 529.634 248.911 603.226C246.727 651.763 252.942 679.587 315.831 736.457C369.945 765.948 405.161 774.248 481.487 766.025C533.871 749.681 562.062 738.679 601.01 703.071C642.68 669.448 658.284 629.219 662.383 597.717C660.416 508.724 625.427 472.888 557.758 397.38C599.43 384.165 646.684 341.371 654.184 331.525C662.182 321.025 663.968 320.787 672.517 305.525C678.595 294.676 678.414 297.759 687.492 280.821C696.57 263.883 716.904 250.434 725.312 258.073C733.719 265.713 792.455 355.759 874.547 397.38C942.907 438.564 982.301 451.483 1055.99 468.044C1084.42 471.077 1099.19 470.651 1124.26 467.747C1152.3 462.125 1199.67 442.667 1236.78 427.424C1253.85 420.414 1268.74 414.295 1278.59 410.823C1309.85 399.802 1335.26 427.424 1335.26 427.424ZM526.306 409.152C607.95 478.618 628.911 521.063 632.128 601.557C620.776 643.368 609.616 667.184 536.006 713.863C455.811 747.715 411.797 753.805 336.991 714.729C288.451 671.934 276.936 644.314 286.202 588.227C305.067 510.592 361.818 463.354 526.306 409.152ZM1188.99 95.3209C1180.49 54.3209 1140.99 32.287 1045.72 32.287C950.451 32.2871 726.975 134.597 742.54 220.909C790.513 217.148 832.884 214.063 870.321 211.337C1028.33 199.831 1085.99 189.371 1130.7 172.239C1175.42 155.107 1197.02 134.058 1188.99 95.3209Z" fill="#FED868"/>
</svg>
